<svg height="100%" width="100%">
        <defs>
          <pattern
            id="doodad"
            width="60"
            height="60"
            viewBox="0 0 40 40"
            patternUnits="userSpaceOnUse"
            patternTransform=""
          >
            <rect width="100%" height="100%" fill="rgba(12, 12, 20,1)" />
            <path
              d="M-20 31.5l10-10l10 10l10-10l10 10l10-10l10 10v-3l-10-10l-10 10l-10-10l-10 10l-10-10l-10 10zM-20-8.5l10-10l10 10l10-10l10 10l10-10l10 10v-3l-10-10l-10 10l-10-10l-10 10l-10-10l-10 10zM-20 71.5l10-10l10 10l10-10l10 10l10-10l10 10v-3l-10-10l-10 10l-10-10l-10 10l-10-10l-10 10z "
              fill="#1a202c"
            />
            <path
              d="M-20 51.5l20-20l20 20l20-20l20 20l20-20l20 20v-3l-20-20l-20 20l-20-20l-20 20l-20-20l-20 20zM-20 11.5l20-20l20 20l20-20l20 20l20-20l20 20v-3l-20-20l-20 20l-20-20l-20 20l-20-20l-20 20zM-20 91.5l20-20l20 20l20-20l20 20l20-20l20 20v-3l-20-20l-20 20l-20-20l-20 20l-20-20l-20 20z "
              fill="rgba(252, 118, 106,0.5)"
            />
          </pattern>
        </defs>
        <rect fill="url(#doodad)" height="200%" width="200%" />
      </svg>